<?xml version="1.0" standalone="no"?><!DOCTYPE svg PUBLIC "-//W3C//DTD SVG 1.1//EN" "http://www.w3.org/Graphics/SVG/1.1/DTD/svg11.dtd"><svg t="1539917975459" class="icon" style="" viewBox="0 0 1024 1024" version="1.1" xmlns="http://www.w3.org/2000/svg" p-id="30760" xmlns:xlink="http://www.w3.org/1999/xlink" width="200" height="200"><defs><style type="text/css"></style></defs><path d="M479.232 604.672V800a32 32 0 1 0 64 0V604.928a160 160 0 1 0-64-0.256zM128 192c128.384 0 256.384-42.688 384-128 127.872 85.312 255.872 128 384 128v302.016a512 512 0 0 1-227.968 425.984L512 1024l-156.032-104A512 512 0 0 1 128 494.016V192z m384 352a96 96 0 1 1 0-192 96 96 0 0 1 0 192z" p-id="30761"></path></svg>