<?xml version="1.0" standalone="no"?><!DOCTYPE svg PUBLIC "-//W3C//DTD SVG 1.1//EN" "http://www.w3.org/Graphics/SVG/1.1/DTD/svg11.dtd"><svg t="1539917637636" class="icon" style="" viewBox="0 0 1024 1024" version="1.1" xmlns="http://www.w3.org/2000/svg" p-id="27141" xmlns:xlink="http://www.w3.org/1999/xlink" width="200" height="200"><defs><style type="text/css"></style></defs><path d="M860.058173 560.68614a381.979366 381.979366 0 0 0 40.030826-169.924176 390.825606 390.825606 0 0 0-781.523928 0c0.063642 58.996147 13.810317 117.164947 40.094469 169.924176l-158.468614 270.478559s100.554382 20.365444 202.381604 41.367308L338.702797 1024l145.740211-248.840273c8.273462 0 16.546924 1.27284 24.820385 1.27284s16.546924-1.27284 24.820386-1.27284l145.740211 248.840273 136.130267-151.467993c101.827222-21.001865 202.381603-41.367309 202.381604-41.367308l-158.277688-270.478559zM509.136109 610.326911a222.747048 222.747048 0 1 1 0.063642-445.557738A222.747048 222.747048 0 0 1 509.136109 610.326911z" p-id="27142"></path><path d="M509.136109 387.579863m-159.105034 0a159.105034 159.105034 0 1 0 318.210069 0 159.105034 159.105034 0 1 0-318.210069 0Z" p-id="27143"></path></svg>