<?xml version="1.0" standalone="no"?><!DOCTYPE svg PUBLIC "-//W3C//DTD SVG 1.1//EN" "http://www.w3.org/Graphics/SVG/1.1/DTD/svg11.dtd"><svg t="1585291990642" class="icon" viewBox="0 0 1024 1024" version="1.1" xmlns="http://www.w3.org/2000/svg" p-id="12166" xmlns:xlink="http://www.w3.org/1999/xlink" width="150" height="150"><defs><style type="text/css"></style></defs><path d="M355.4304 120.4224 250.9824 120.4224c-71.9872 0-130.56 58.5728-130.56 130.4576l0 104.448c0 71.9872 58.5728 130.56 130.56 130.56l234.9056 0L485.888 250.9824C485.888 178.9952 427.3152 120.4224 355.4304 120.4224zM433.664 433.664 250.9824 433.664c-43.2128 0-78.336-35.1232-78.336-78.336l0-104.448c0-43.2128 35.1232-78.336 78.336-78.336l104.3456 0c43.2128 0 78.336 35.1232 78.336 78.336L433.664 433.664z" p-id="12167"></path><path d="M120.4224 668.5696l0 104.448c0 71.9872 58.5728 130.56 130.56 130.56l104.3456 0c71.9872 0 130.56-58.5728 130.56-130.56L485.888 538.112 250.9824 538.112C178.9952 538.112 120.4224 596.6848 120.4224 668.5696zM433.664 773.0176c0 43.2128-35.1232 78.336-78.336 78.336L250.9824 851.3536c-43.2128 0-78.336-35.1232-78.336-78.336l0-104.448c0-43.2128 35.1232-78.336 78.336-78.336l182.6816 0L433.664 773.0176z" p-id="12168"></path><path d="M773.0176 120.4224l-104.448 0c-71.9872 0-130.4576 58.5728-130.4576 130.4576l0 234.9056 234.9056 0c71.9872 0 130.4576-58.5728 130.4576-130.56l0-104.448C903.5776 178.9952 845.0048 120.4224 773.0176 120.4224zM851.3536 355.4304c0 43.2128-35.1232 78.336-78.336 78.336L590.336 433.7664 590.336 250.9824c0-43.2128 35.1232-78.336 78.336-78.336l104.448 0c43.2128 0 78.336 35.1232 78.336 78.336L851.456 355.4304z" p-id="12169"></path><path d="M773.0176 538.112 538.112 538.112l0 234.9056c0 71.9872 58.5728 130.56 130.4576 130.56l104.448 0c71.9872 0 130.4576-58.5728 130.4576-130.56l0-104.448C903.5776 596.6848 845.0048 538.112 773.0176 538.112zM851.3536 773.0176c0 43.2128-35.1232 78.336-78.336 78.336l-104.448 0c-43.2128 0-78.336-35.1232-78.336-78.336L590.2336 590.336l182.784 0c43.2128 0 78.336 35.1232 78.336 78.336L851.3536 773.0176z" p-id="12170"></path></svg>