<?xml version="1.0" standalone="no"?><!DOCTYPE svg PUBLIC "-//W3C//DTD SVG 1.1//EN" "http://www.w3.org/Graphics/SVG/1.1/DTD/svg11.dtd"><svg t="1585291202928" class="icon" viewBox="0 0 1024 1024" version="1.1" xmlns="http://www.w3.org/2000/svg" p-id="6153" xmlns:xlink="http://www.w3.org/1999/xlink" width="150" height="150"><defs><style type="text/css"></style></defs><path d="M356.352 798.72c-10.24 79.872-79.872 143.36-161.792 143.36-90.112 0-163.84-73.728-163.84-163.84s73.728-163.84 163.84-163.84c16.384 0 30.72 2.048 45.056 6.144l153.6-251.904c-34.816-30.72-57.344-73.728-57.344-124.928 0-90.112 73.728-163.84 163.84-163.84s163.84 73.728 163.84 163.84c0 49.152-22.528 94.208-57.344 124.928l155.648 251.904c40.96-12.288 86.016-8.192 124.928 14.336 73.728 40.96 104.448 131.072 71.68 206.848-4.096 10.24-16.384 14.336-26.624 10.24-10.24-4.096-14.336-16.384-10.24-26.624 24.576-57.344 2.048-124.928-53.248-155.648-59.392-32.768-135.168-12.288-167.936 47.104-32.768 59.392-12.288 135.168 49.152 167.936 32.768 18.432 73.728 20.48 108.544 6.144 10.24-4.096 22.528 0 26.624 10.24 4.096 10.24 0 22.528-10.24 26.624-45.056 18.432-98.304 16.384-143.36-8.192-47.104-26.624-77.824-73.728-83.968-122.88h-290.816z m0-40.96h288.768c2.048-20.48 8.192-38.912 18.432-59.392 14.336-26.624 34.816-47.104 59.392-61.44l-151.552-245.76c-22.528 10.24-47.104 16.384-71.68 16.384s-51.2-6.144-71.68-16.384l-151.552 245.76c45.056 26.624 73.728 69.632 79.872 120.832z m145.408-389.12c67.584 0 122.88-55.296 122.88-122.88s-55.296-122.88-122.88-122.88-122.88 55.296-122.88 122.88 55.296 122.88 122.88 122.88z m-307.2 532.48c67.584 0 122.88-55.296 122.88-122.88s-55.296-122.88-122.88-122.88-122.88 55.296-122.88 122.88 55.296 122.88 122.88 122.88z" p-id="6154"></path></svg>