<?xml version="1.0" standalone="no"?><!DOCTYPE svg PUBLIC "-//W3C//DTD SVG 1.1//EN" "http://www.w3.org/Graphics/SVG/1.1/DTD/svg11.dtd"><svg t="1606444704433" class="icon" viewBox="0 0 1024 1024" version="1.1" xmlns="http://www.w3.org/2000/svg" p-id="9670" xmlns:xlink="http://www.w3.org/1999/xlink" width="300" height="300"><defs><style type="text/css"></style></defs><path d="M283.180522 470.483478H740.841739v51.244522H283.158261v-51.244522z m0 225.502609h280.108521v51.266783H283.158261v-51.266783z" p-id="9671"></path><path d="M835.984696 1024H188.015304a102.978783 102.978783 0 0 1-38.912-7.613217c-11.842783-5.053217-22.839652-11.798261-31.298782-21.103305a97.346783 97.346783 0 0 1-21.147826-31.254261A102.578087 102.578087 0 0 1 89.043478 925.161739V251.904c0-13.512348 2.537739-26.201043 7.613218-38.867478 5.075478-11.820522 11.842783-22.817391 21.147826-31.254261a97.502609 97.502609 0 0 1 31.298782-21.125565 102.978783 102.978783 0 0 1 38.912-7.590957h98.125913v49.842087H188.015304a49.975652 49.975652 0 0 0-49.908869 49.842087v673.257739c0 27.024696 21.993739 49.842087 49.908869 49.842087h647.123479a49.975652 49.975652 0 0 0 49.908869-49.842087V251.904a49.975652 49.975652 0 0 0-49.908869-49.864348h-97.28V152.242087h98.125913c13.534609 0 26.223304 2.537739 38.912 7.590956 11.842783 5.075478 22.839652 11.842783 31.298782 21.147827 9.305043 9.260522 16.072348 19.411478 21.147826 31.232 5.075478 12.688696 7.613217 25.35513 7.613218 38.867478v673.257739c0 13.512348-2.537739 26.201043-7.613218 38.867478-5.075478 11.820522-11.842783 22.79513-21.147826 31.254261a97.502609 97.502609 0 0 1-31.298782 21.125565c-12.688696 5.89913-25.377391 8.43687-38.912 8.43687z" p-id="9672"></path><path d="M766.864696 304.439652H269.334261V139.776c0-35.172174 27.91513-63.443478 62.597565-63.443478H396.243478A136.904348 136.904348 0 0 1 518.90087 0a136.904348 136.904348 0 0 1 122.701913 76.332522h64.311652c34.682435 0 62.619826 28.271304 62.619826 63.443478l-1.691826 164.663652zM319.22087 253.840696h398.536347V139.776a13.111652 13.111652 0 0 0-12.688695-12.866783h-98.994087l-5.943652-17.140869a86.817391 86.817391 0 0 0-82.075826-59.169391 86.817391 86.817391 0 0 0-82.075827 59.169391l-5.921391 17.140869h-98.994087c-6.767304 0-12.688696 6.010435-12.688695 12.866783v114.064696h0.845913z" p-id="9673"></path></svg>