<?xml version="1.0" standalone="no"?><!DOCTYPE svg PUBLIC "-//W3C//DTD SVG 1.1//EN" "http://www.w3.org/Graphics/SVG/1.1/DTD/svg11.dtd"><svg t="1594271834669" class="icon" viewBox="0 0 1024 1024" version="1.1" xmlns="http://www.w3.org/2000/svg" p-id="36521" xmlns:xlink="http://www.w3.org/1999/xlink" width="300" height="300"><defs><style type="text/css"></style></defs><path d="M876.08888889 464.08590222a24.27259221 24.27259221 0 0 0 24.27259221-24.27259221V218.98126222a23.9813211 23.9813211 0 0 0-20.82588444-23.59296c-1.60199111-0.72817778-3.10689223-1.65053667-4.90306333-2.03889777l-358.02074112-69.37107002a21.99096889 21.99096889 0 0 0-7.13614222 0.04854557 22.42787555 22.42787555 0 0 0-8.2526811 0l-351.95259222 69.32252445c-1.79617223 0.3883611-3.25252779 1.35926557-4.85451889 2.03889777A23.93277667 23.93277667 0 0 0 123.6385189 218.98126222v325.59255666c0 1.65053667 0.63108779 3.10689223 0.92235776 4.66033778 9.85467221 199.76343666 197.72453888 327.38872889 383.89532444 350.78750891a21.55406222 21.55406222 0 0 0 3.05834667 0.19417998h0.97090446a21.55406222 21.55406222 0 0 0 3.05834667-0.19417998c160.15056555-20.09770667 347.38934557-125.82912 379.86607331-310.39791446a24.27259221 24.27259221 0 1 0-47.76846222-8.39831666c-28.10766222 159.37384334-193.16129223 251.51260445-335.59286442 270.25104555C342.72293888 829.29132999 172.18370333 713.21979221 172.18370333 533.02006557v-294.66927446l336.85504-66.40981333L851.81629667 238.35079111v201.4625189a24.27259221 24.27259221 0 0 0 24.27259222 24.27259221" p-id="36522"></path><path d="M364.32554667 269.9051611a24.27259221 24.27259221 0 0 0-24.27259222 24.27259335v99.51762888c0 92.91548445 76.21594112 168.50033778 169.90814777 168.50033777s169.90814777-75.58485333 169.90814777-168.45179221v-99.51763001a24.27259221 24.27259221 0 0 0-48.54518442 0v99.51763001c0 66.11854222-54.41915221 119.90660779-121.36296335 119.90660778s-121.36296334-53.78806557-121.36296334-119.90660778v-99.51763001a24.27259221 24.27259221 0 0 0-24.27259221-24.27259221" p-id="36523"></path></svg>