<?xml version="1.0" standalone="no"?><!DOCTYPE svg PUBLIC "-//W3C//DTD SVG 1.1//EN" "http://www.w3.org/Graphics/SVG/1.1/DTD/svg11.dtd"><svg t="1534748522006" class="icon" style="" viewBox="0 0 1024 1024" version="1.1" xmlns="http://www.w3.org/2000/svg" p-id="2044" xmlns:xlink="http://www.w3.org/1999/xlink" width="200" height="200"><defs><style type="text/css"></style></defs><path d="M976.576 0l-765.312 0c-26.176 0-47.424 21.248-47.424 47.424l0 667.136c0 66.304 2.944 126.336-28.864 172.416-31.744-46.144-28.032-105.792-28.032-172.032l0-522.56-106.944-0.384 0 618.688c0 117.76 91.648 213.312 204.8 213.312l614.4 0c113.088 0 204.8-95.552 204.8-213.312l0-763.264c0-26.176-21.248-47.424-47.424-47.424zM876.16 832l-552.96 0 0-85.312 552.96 0 0 85.312zM876.16 647.104l-552.96 0 0-85.312 552.96 0 0 85.312zM876.16 462.208l-552.96 0 0-85.312 552.96 0 0 85.312zM876.16 277.312l-552.96 0 0-85.312 552.96 0 0 85.312z" p-id="2045"></path></svg>