<?xml version="1.0" standalone="no"?><!DOCTYPE svg PUBLIC "-//W3C//DTD SVG 1.1//EN" "http://www.w3.org/Graphics/SVG/1.1/DTD/svg11.dtd"><svg t="1545974588130" class="icon" style="" viewBox="0 0 1024 1024" version="1.1" xmlns="http://www.w3.org/2000/svg" p-id="5556" xmlns:xlink="http://www.w3.org/1999/xlink" width="128" height="128"><defs><style type="text/css"></style></defs><path d="M341.577 20.249a16 16 0 0 1-0.574-4.249c0-8.837 7.163-16 16-16h291.3a16 16 0 0 1 4.728 0.715c8.442 2.61 13.169 11.571 10.557 20.013l-63.101 204A16 16 0 0 1 585.2 236H413.19a16 16 0 0 1-15.426-11.751l-56.186-204z m62.267 272.448A16 16 0 0 1 418.55 283h162.788a16 16 0 0 1 14.767 9.84l195.47 468.551a16 16 0 0 1-4.217 18.189l-273.845 240.199a16 16 0 0 1-21.059 0.037L209.79 773.655a16 16 0 0 1-4.198-18.369l198.252-462.589zM817.615 681a16 16 0 0 1-14.742-9.78L680 380l195.1 225.492a16 16 0 0 1 3.9 10.469V665c0 8.837-7.163 16-16 16h-45.385z" p-id="5557"></path></svg>