<?xml version="1.0" standalone="no"?><!DOCTYPE svg PUBLIC "-//W3C//DTD SVG 1.1//EN" "http://www.w3.org/Graphics/SVG/1.1/DTD/svg11.dtd"><svg t="1534749433425" class="icon" style="" viewBox="0 0 1024 1024" version="1.1" xmlns="http://www.w3.org/2000/svg" p-id="5821" xmlns:xlink="http://www.w3.org/1999/xlink" width="200" height="200"><defs><style type="text/css"></style></defs><path d="M919.411145 0 633.478528 0c-52.41728 0-125.636578 30.315136-162.706028 67.384586L27.810015 510.347071c-37.06945 37.06945-37.06945 97.731432 0 134.800882l341.77462 341.77462c37.06945 37.06945 97.731432 37.06945 134.800882 0l442.930774-442.930774C984.417451 506.922348 1014.732587 433.70305 1014.732587 381.254059L1014.732587 95.321442C1014.732587 42.904162 971.828425 0 919.411145 0zM792.759834 317.103934c-52.544122 0-95.13118-42.587058-95.13118-95.13118s42.587058-95.13118 95.13118-95.13118 95.13118 42.587058 95.13118 95.13118S845.303956 317.103934 792.759834 317.103934z" p-id="5822"></path></svg>