<?xml version="1.0" standalone="no"?><!DOCTYPE svg PUBLIC "-//W3C//DTD SVG 1.1//EN" "http://www.w3.org/Graphics/SVG/1.1/DTD/svg11.dtd"><svg t="1534749295163" class="icon" style="" viewBox="0 0 1024 1024" version="1.1" xmlns="http://www.w3.org/2000/svg" p-id="5137" xmlns:xlink="http://www.w3.org/1999/xlink" width="200" height="200"><defs><style type="text/css"></style></defs><path d="M758.242 618.464 529.473 847.7c-11.183 10.716-26.559 17.239-42.4 17.239s-31.217-6.523-41.934-17.239L112.001 514.097c-23.762-23.296-42.399-68.491-42.399-101.572L69.602 218.699c0-32.615 27.024-59.639 59.639-59.639l193.826 0c33.081 0 78.276 18.637 102.038 42.399l333.138 332.671c10.717 11.183 17.24 26.558 17.24 42.399S768.959 607.747 758.242 618.464zM218.699 248.519c-33.081 0-59.639 26.558-59.639 59.639s26.558 59.639 59.639 59.639 59.639-26.558 59.639-59.639S251.78 248.519 218.699 248.519zM937.158 618.464 708.389 847.7c-11.184 10.716-26.559 17.239-42.4 17.239-24.229 0-36.342-11.183-52.184-27.49l218.986-218.985c10.717-10.717 17.238-26.092 17.238-41.934s-6.521-31.217-17.238-42.399L499.653 201.46c-23.762-23.763-68.957-42.399-102.038-42.399l104.368 0c33.08 0 78.275 18.637 102.037 42.399l333.139 332.671c10.717 11.183 17.24 26.558 17.24 42.399S947.875 607.747 937.158 618.464z" p-id="5138"></path></svg>