<?xml version="1.0" standalone="no"?><!DOCTYPE svg PUBLIC "-//W3C//DTD SVG 1.1//EN" "http://www.w3.org/Graphics/SVG/1.1/DTD/svg11.dtd"><svg t="1556276540137" class="icon" style="" viewBox="0 0 1024 1024" version="1.1" xmlns="http://www.w3.org/2000/svg" p-id="17367" xmlns:xlink="http://www.w3.org/1999/xlink" width="24" height="24"><defs><style type="text/css"></style></defs><path d="M529.066667 532.906667a351.146667 351.146667 0 0 1 98.986666 14.08 42.666667 42.666667 0 0 0 25.6-81.066667A208.213333 208.213333 0 0 0 725.333333 309.333333a209.92 209.92 0 1 0-419.413333 0A207.786667 207.786667 0 0 0 384 472.32 448.853333 448.853333 0 0 0 85.333333 896a42.666667 42.666667 0 0 0 42.666667 42.666667h213.333333a42.666667 42.666667 0 0 0 0-85.333334H173.226667a360.533333 360.533333 0 0 1 355.84-320.426666z m-13.653334-348.16a124.586667 124.586667 0 1 1-124.16 124.586666 124.586667 124.586667 0 0 1 124.16-124.586666z" p-id="17368"></path><path d="M597.333333 640a42.666667 42.666667 0 0 0 42.666667 42.666667h256a42.666667 42.666667 0 0 0 0-85.333334h-256a42.666667 42.666667 0 0 0-42.666667 42.666667zM896 725.333333h-256a42.666667 42.666667 0 0 0 0 85.333334h256a42.666667 42.666667 0 0 0 0-85.333334zM896 858.453333h-256a42.666667 42.666667 0 0 0 0 85.333334h256a42.666667 42.666667 0 0 0 0-85.333334z" p-id="17369"></path></svg>